<svg width="241" height="96" viewBox="0 0 241 96" fill="none" xmlns="http://www.w3.org/2000/svg">
<mask id="mask0_571_5706" style="mask-type:alpha" maskUnits="userSpaceOnUse" x="15" y="14" width="209" height="71">
<path d="M57.989 66.656C58.0743 66.4853 58.1597 66.336 58.245 66.208C58.3303 66.0373 58.4157 65.888 58.501 65.76L59.653 63.392L64.197 58.912L69.765 60.96L68.805 63.648C67.6103 66.976 65.7543 69.8773 63.237 72.352L58.693 76.896C56.517 79.1147 53.9783 80.864 51.077 82.144C48.2183 83.424 45.189 84.064 41.989 84.064C38.789 84.064 35.6743 83.4027 32.645 82.08C29.6583 80.7573 27.0343 78.9653 24.773 76.704C23.1517 75.04 21.765 73.2267 20.613 71.264C19.4183 69.2587 18.4583 67.1893 17.733 65.056C16.965 62.88 16.4103 60.6613 16.069 58.4C15.685 56.1387 15.493 53.92 15.493 51.744C15.493 49.5253 15.6637 47.3067 16.005 45.088C16.3463 42.8267 16.901 40.6293 17.669 38.496C18.3943 36.32 19.3543 34.2507 20.549 32.288C21.701 30.3253 23.0877 28.5333 24.709 26.912L29.253 22.432C31.685 20 34.4157 18.144 37.445 16.864C40.517 15.5413 43.7597 14.88 47.173 14.88C48.709 14.88 50.373 15.072 52.165 15.456C53.957 15.7973 55.7063 16.3093 57.413 16.992C59.1623 17.6747 60.7837 18.528 62.277 19.552C63.7703 20.5333 65.0077 21.664 65.989 22.944L67.141 24.48L58.309 38.944L53.829 43.488H48.133L48.837 39.968C49.093 38.8587 49.221 37.7493 49.221 36.64C49.221 35.232 48.9863 34.0373 48.517 33.056C48.0903 32.032 47.4717 31.2 46.661 30.56C45.8503 29.92 44.869 29.4507 43.717 29.152C42.6077 28.8533 41.3917 28.704 40.069 28.704C37.7223 28.704 35.6743 29.1947 33.925 30.176C32.9863 31.7973 32.2823 33.632 31.813 35.68C31.3863 37.728 31.173 39.904 31.173 42.208C31.173 44.9387 31.5997 47.8613 32.453 50.976C33.3063 54.048 34.565 56.9067 36.229 59.552C37.893 62.1547 39.941 64.3307 42.373 66.08C44.8477 67.7867 47.685 68.64 50.885 68.64C53.445 68.64 55.813 67.9787 57.989 66.656ZM50.885 71.52C47.557 71.52 44.5063 70.6667 41.733 68.96C39.0023 67.2533 36.6343 65.0347 34.629 62.304C32.6237 59.5307 31.0663 56.3947 29.957 52.896C28.8477 49.3547 28.293 45.792 28.293 42.208C28.293 39.4347 28.5917 36.7893 29.189 34.272C29.829 31.7547 30.8103 29.536 32.133 27.616C33.4557 25.696 35.141 24.16 37.189 23.008C39.2797 21.856 41.7543 21.28 44.613 21.28C46.661 21.28 48.517 21.6 50.181 22.24C51.845 22.8373 53.2103 23.776 54.277 25.056C55.3437 26.2933 56.0477 27.8293 56.389 29.664C56.773 31.4987 56.709 33.632 56.197 36.064H56.709L63.685 24.672C63.173 23.9893 62.3837 23.2427 61.317 22.432C60.293 21.6213 59.0557 20.8747 57.605 20.192C56.1543 19.5093 54.533 18.9333 52.741 18.464C50.9917 17.9947 49.1357 17.76 47.173 17.76C43.9303 17.76 40.837 18.4427 37.893 19.808C34.949 21.1733 32.3677 23.136 30.149 25.696C27.9303 28.256 26.1597 31.3493 24.837 34.976C23.557 38.6027 22.917 42.6773 22.917 47.2C22.917 51.7227 23.557 55.7973 24.837 59.424C26.1597 63.0507 27.909 66.144 30.085 68.704C32.261 71.264 34.7783 73.2267 37.637 74.592C40.4957 75.9573 43.461 76.64 46.533 76.64C48.837 76.64 51.0343 76.256 53.125 75.488C55.2157 74.72 57.1143 73.696 58.821 72.416C60.5277 71.136 61.9997 69.664 63.237 68C64.517 66.2933 65.477 64.5227 66.117 62.688L65.605 62.496C65.0503 63.648 64.3037 64.7787 63.365 65.888C62.4263 66.9547 61.3383 67.9147 60.101 68.768C58.8637 69.5787 57.4557 70.24 55.877 70.752C54.341 71.264 52.677 71.52 50.885 71.52ZM92.8335 79.072C91.2975 80.608 89.4842 81.824 87.3935 82.72C85.3028 83.616 82.9348 84.064 80.2895 84.064C77.5588 84.064 75.0628 83.5307 72.8015 82.464C70.5828 81.44 68.6842 80.032 67.1055 78.24C65.4842 76.4907 64.2468 74.4427 63.3935 72.096C62.5402 69.7067 62.1135 67.1893 62.1135 64.544C62.1135 61.728 62.6042 59.0613 63.5855 56.544C64.5242 54.0267 65.9322 51.8507 67.8095 50.016L72.2895 45.472C73.8255 43.936 75.6388 42.72 77.7295 41.824C79.8628 40.928 82.2308 40.48 84.8335 40.48C87.6068 40.48 90.1028 40.992 92.3215 42.016C94.5828 43.04 96.5028 44.448 98.0815 46.24C99.6602 47.9893 100.876 50.0587 101.729 52.448C102.583 54.7947 103.01 57.312 103.01 60C103.01 62.816 102.519 65.4827 101.538 68C100.599 70.5173 99.2122 72.6933 97.3775 74.528L92.8335 79.072ZM84.8335 76.64C86.9242 76.64 88.8868 76.256 90.7215 75.488C92.5988 74.72 94.2202 73.6107 95.5855 72.16C96.9935 70.7093 98.1028 68.96 98.9135 66.912C99.7242 64.864 100.13 62.56 100.13 60C100.13 57.44 99.7242 55.136 98.9135 53.088C98.1028 51.04 96.9935 49.2907 95.5855 47.84C94.2202 46.3893 92.5988 45.28 90.7215 44.512C88.8868 43.744 86.9242 43.36 84.8335 43.36C82.7428 43.36 80.7588 43.744 78.8815 44.512C77.0468 45.28 75.4255 46.3893 74.0175 47.84C72.6522 49.2907 71.5642 51.04 70.7535 53.088C69.9428 55.136 69.5375 57.44 69.5375 60C69.5375 62.56 69.9428 64.864 70.7535 66.912C71.5642 68.96 72.6522 70.7093 74.0175 72.16C75.4255 73.6107 77.0468 74.72 78.8815 75.488C80.7588 76.256 82.7428 76.64 84.8335 76.64ZM82.2735 45.92C84.2362 45.92 85.9855 46.5173 87.5215 47.712C89.0575 48.9067 90.3588 50.4 91.4255 52.192C92.4922 53.984 93.3028 55.9467 93.8575 58.08C94.4548 60.1707 94.7535 62.1547 94.7535 64.032C94.7535 65.3547 94.6042 66.6347 94.3055 67.872C94.0068 69.0667 93.5375 70.1333 92.8975 71.072C92.3002 72.0107 91.5322 72.7573 90.5935 73.312C89.6975 73.824 88.6308 74.08 87.3935 74.08C85.4308 74.08 83.6815 73.4827 82.1455 72.288C80.6095 71.0933 79.3082 69.6 78.2415 67.808C77.1748 66.016 76.3428 64.0533 75.7455 61.92C75.1908 59.7867 74.9135 57.8027 74.9135 55.968C74.9135 54.6027 75.0628 53.3227 75.3615 52.128C75.6602 50.9333 76.1082 49.8667 76.7055 48.928C77.3455 47.9893 78.1135 47.264 79.0095 46.752C79.9482 46.1973 81.0362 45.92 82.2735 45.92ZM77.7935 55.968C77.7935 57.248 77.9855 58.7413 78.3695 60.448C78.7535 62.112 79.3295 63.7333 80.0975 65.312C80.9082 66.848 81.8895 68.192 83.0415 69.344C84.2362 70.4533 85.6015 71.072 87.1375 71.2C87.2655 70.3467 87.3295 69.472 87.3295 68.576C87.3295 67.3387 87.1375 65.8667 86.7535 64.16C86.3695 62.4533 85.7722 60.8107 84.9615 59.232C84.1935 57.6533 83.2335 56.288 82.0815 55.136C80.9295 53.984 79.5855 53.3867 78.0495 53.344C77.8788 54.0267 77.7935 54.9013 77.7935 55.968ZM126.646 79.072C125.11 80.608 123.297 81.824 121.206 82.72C119.115 83.616 116.747 84.064 114.102 84.064C111.371 84.064 108.875 83.5307 106.614 82.464C104.395 81.44 102.497 80.032 100.918 78.24C99.2967 76.4907 98.0593 74.4427 97.206 72.096C96.3527 69.7067 95.926 67.1893 95.926 64.544C95.926 61.728 96.4167 59.0613 97.398 56.544C98.3367 54.0267 99.7447 51.8507 101.622 50.016L106.102 45.472C107.638 43.936 109.451 42.72 111.542 41.824C113.675 40.928 116.043 40.48 118.646 40.48C121.419 40.48 123.915 40.992 126.134 42.016C128.395 43.04 130.315 44.448 131.894 46.24C133.473 47.9893 134.689 50.0587 135.542 52.448C136.395 54.7947 136.822 57.312 136.822 60C136.822 62.816 136.331 65.4827 135.35 68C134.411 70.5173 133.025 72.6933 131.19 74.528L126.646 79.072ZM118.646 76.64C120.737 76.64 122.699 76.256 124.534 75.488C126.411 74.72 128.033 73.6107 129.398 72.16C130.806 70.7093 131.915 68.96 132.726 66.912C133.537 64.864 133.942 62.56 133.942 60C133.942 57.44 133.537 55.136 132.726 53.088C131.915 51.04 130.806 49.2907 129.398 47.84C128.033 46.3893 126.411 45.28 124.534 44.512C122.699 43.744 120.737 43.36 118.646 43.36C116.555 43.36 114.571 43.744 112.694 44.512C110.859 45.28 109.238 46.3893 107.83 47.84C106.465 49.2907 105.377 51.04 104.566 53.088C103.755 55.136 103.35 57.44 103.35 60C103.35 62.56 103.755 64.864 104.566 66.912C105.377 68.96 106.465 70.7093 107.83 72.16C109.238 73.6107 110.859 74.72 112.694 75.488C114.571 76.256 116.555 76.64 118.646 76.64ZM116.086 45.92C118.049 45.92 119.798 46.5173 121.334 47.712C122.87 48.9067 124.171 50.4 125.238 52.192C126.305 53.984 127.115 55.9467 127.67 58.08C128.267 60.1707 128.566 62.1547 128.566 64.032C128.566 65.3547 128.417 66.6347 128.118 67.872C127.819 69.0667 127.35 70.1333 126.71 71.072C126.113 72.0107 125.345 72.7573 124.406 73.312C123.51 73.824 122.443 74.08 121.206 74.08C119.243 74.08 117.494 73.4827 115.958 72.288C114.422 71.0933 113.121 69.6 112.054 67.808C110.987 66.016 110.155 64.0533 109.558 61.92C109.003 59.7867 108.726 57.8027 108.726 55.968C108.726 54.6027 108.875 53.3227 109.174 52.128C109.473 50.9333 109.921 49.8667 110.518 48.928C111.158 47.9893 111.926 47.264 112.822 46.752C113.761 46.1973 114.849 45.92 116.086 45.92ZM111.606 55.968C111.606 57.248 111.798 58.7413 112.182 60.448C112.566 62.112 113.142 63.7333 113.91 65.312C114.721 66.848 115.702 68.192 116.854 69.344C118.049 70.4533 119.414 71.072 120.95 71.2C121.078 70.3467 121.142 69.472 121.142 68.576C121.142 67.3387 120.95 65.8667 120.566 64.16C120.182 62.4533 119.585 60.8107 118.774 59.232C118.006 57.6533 117.046 56.288 115.894 55.136C114.742 53.984 113.398 53.3867 111.862 53.344C111.691 54.0267 111.606 54.9013 111.606 55.968ZM159.243 79.776C157.963 81.056 156.469 82.08 154.763 82.848C153.099 83.6587 151.221 84.064 149.131 84.064C147.211 84.064 145.461 83.6587 143.883 82.848C142.347 82.08 140.96 81.12 139.723 79.968C139.467 80.0107 139.232 80.0747 139.019 80.16C138.805 80.288 138.571 80.4587 138.315 80.672L137.227 81.632L134.794 84.064H130.698V28.576C130.698 28.1493 130.634 27.808 130.506 27.552C130.378 27.2533 129.952 27.104 129.226 27.104V24.544L136.523 16.864C136.864 16.864 137.291 16.8427 137.803 16.8C138.357 16.7573 138.912 16.6933 139.467 16.608C140.021 16.48 140.555 16.352 141.067 16.224C141.579 16.0533 141.963 15.84 142.219 15.584L143.051 14.88H147.083V42.336C148.064 41.7387 149.131 41.2907 150.283 40.992C151.435 40.6507 152.65 40.48 153.931 40.48C156.448 40.48 158.709 41.0347 160.715 42.144C162.72 43.2107 164.405 44.64 165.771 46.432C167.179 48.224 168.245 50.2507 168.971 52.512C169.696 54.7733 170.059 57.0773 170.059 59.424C170.059 60.6613 169.931 61.984 169.675 63.392C169.419 64.8 169.013 66.208 168.458 67.616C167.947 69.024 167.285 70.3893 166.475 71.712C165.707 72.992 164.789 74.1653 163.723 75.232L159.243 79.776ZM136.651 19.68C136.949 19.8933 137.184 20.2133 137.355 20.64C137.568 21.024 137.717 21.4293 137.803 21.856C137.931 22.2827 138.016 22.688 138.059 23.072C138.101 23.456 138.123 23.776 138.123 24.032V76.64H138.187C138.613 76.256 139.061 75.808 139.531 75.296C140 74.784 140.512 74.3147 141.067 73.888C141.664 73.4187 142.325 73.056 143.051 72.8C143.776 72.544 144.587 72.48 145.483 72.608C146.464 73.7173 147.616 74.6773 148.939 75.488C150.304 76.256 151.883 76.64 153.675 76.64C155.467 76.64 157.173 76.192 158.795 75.296C160.416 74.3573 161.845 73.12 163.083 71.584C164.363 70.0053 165.365 68.1707 166.091 66.08C166.816 63.9893 167.179 61.7707 167.179 59.424C167.179 56.992 166.795 54.7947 166.027 52.832C165.301 50.8693 164.32 49.184 163.083 47.776C161.888 46.368 160.48 45.28 158.859 44.512C157.28 43.744 155.637 43.36 153.931 43.36C151.883 43.36 150.048 43.872 148.427 44.896C146.805 45.8773 145.397 47.1147 144.203 48.608V17.76H144.139C143.499 18.3573 142.773 18.848 141.963 19.232C141.195 19.5733 140.235 19.744 139.083 19.744C138.272 19.744 137.461 19.6587 136.651 19.488V19.68ZM152.395 46.304C153.888 46.304 155.189 46.7947 156.299 47.776C157.451 48.7573 158.411 50.0587 159.179 51.68C159.947 53.2587 160.523 55.072 160.907 57.12C161.333 59.168 161.547 61.2373 161.547 63.328C161.547 67.1253 160.949 69.8773 159.755 71.584C158.56 73.248 157.003 74.08 155.083 74.08C153.888 74.08 152.693 73.7813 151.499 73.184C150.347 72.544 149.28 71.6907 148.299 70.624C147.317 69.5147 146.464 68.2347 145.739 66.784C145.013 65.2907 144.501 63.6907 144.203 61.984V54.88C144.843 52.3627 145.888 50.3147 147.339 48.736C148.789 47.1147 150.475 46.304 152.395 46.304ZM153.931 71.008C154.059 69.984 154.123 68.9387 154.123 67.872C154.123 66.976 154.016 65.7387 153.803 64.16C153.632 62.5387 153.312 60.96 152.843 59.424C152.373 57.888 151.733 56.5653 150.923 55.456C150.112 54.304 149.088 53.728 147.851 53.728H147.595C147.467 53.8987 147.36 54.368 147.275 55.136C147.232 55.904 147.189 56.7573 147.147 57.696C147.104 58.592 147.083 59.4453 147.083 60.256C147.083 61.0667 147.083 61.6427 147.083 61.984C147.381 62.88 147.723 63.7973 148.107 64.736C148.491 65.6747 148.939 66.5707 149.451 67.424C149.963 68.2347 150.581 68.9813 151.307 69.664C152.032 70.304 152.907 70.752 153.931 71.008ZM191.278 63.2C190.041 64.3947 188.675 65.312 187.182 65.952C185.689 66.592 184.131 67.1253 182.51 67.552C183.619 68.2773 185.006 68.64 186.67 68.64C187.395 68.64 188.035 68.576 188.59 68.448L189.358 66.848L193.902 62.368L199.47 64.416L198.51 67.104C197.998 68.5973 197.337 70.0693 196.526 71.52C195.715 72.928 194.734 74.208 193.582 75.36L189.038 79.904C187.801 81.1413 186.35 82.144 184.686 82.912C183.022 83.68 181.102 84.064 178.926 84.064C176.238 84.064 173.891 83.488 171.886 82.336C169.923 81.2267 168.281 79.7547 166.958 77.92C165.593 76.128 164.59 74.0587 163.95 71.712C163.267 69.3653 162.926 66.976 162.926 64.544C162.926 61.8133 163.417 59.1467 164.398 56.544C165.379 53.9413 166.83 51.68 168.75 49.76L173.23 45.216C174.723 43.7653 176.43 42.6133 178.35 41.76C180.313 40.9067 182.531 40.48 185.006 40.48C186.67 40.48 188.313 40.7573 189.934 41.312C191.555 41.824 193.006 42.592 194.286 43.616C195.566 44.64 196.59 45.8773 197.358 47.328C198.126 48.736 198.51 50.336 198.51 52.128C198.51 53.536 198.254 54.7733 197.742 55.84C197.23 56.9067 196.569 57.8453 195.758 58.656L191.278 63.2ZM170.35 60C170.35 62.56 170.67 64.864 171.31 66.912C171.993 68.96 172.91 70.7093 174.062 72.16C175.257 73.6107 176.643 74.72 178.222 75.488C179.843 76.256 181.593 76.64 183.47 76.64C186.03 76.64 188.377 75.8293 190.51 74.208C192.686 72.5867 194.457 69.8987 195.822 66.144L195.31 65.952C194.414 67.744 193.283 69.1307 191.918 70.112C190.595 71.0507 188.846 71.52 186.67 71.52C183.598 71.52 181.166 70.6027 179.374 68.768C177.625 66.9333 176.515 64.352 176.046 61.024C177.07 61.1093 178.243 61.1307 179.566 61.088C180.931 61.0453 182.339 60.9173 183.79 60.704C185.241 60.4907 186.67 60.1707 188.078 59.744C189.486 59.3173 190.745 58.7627 191.854 58.08C193.006 57.3973 193.923 56.5653 194.606 55.584C195.289 54.6027 195.63 53.4507 195.63 52.128C195.63 51.0187 195.374 49.952 194.862 48.928C194.35 47.8613 193.625 46.9227 192.686 46.112C191.747 45.2587 190.617 44.5973 189.294 44.128C188.014 43.616 186.585 43.36 185.006 43.36C183.086 43.36 181.23 43.744 179.438 44.512C177.689 45.28 176.131 46.3893 174.766 47.84C173.443 49.2907 172.377 51.04 171.566 53.088C170.755 55.136 170.35 57.44 170.35 60ZM189.486 52.64C189.486 53.792 189.209 54.7733 188.654 55.584C188.142 56.3947 187.438 57.056 186.542 57.568C185.646 58.08 184.601 58.464 183.406 58.72C182.254 58.9333 181.059 59.04 179.822 59.04C178.457 59.04 177.134 58.912 175.854 58.656C175.769 57.5467 175.79 56.2667 175.918 54.816C176.046 53.3227 176.345 51.9147 176.814 50.592C177.326 49.2693 178.051 48.16 178.99 47.264C179.929 46.368 181.145 45.92 182.638 45.92C183.619 45.92 184.515 46.1333 185.326 46.56C186.179 46.944 186.905 47.456 187.502 48.096C188.142 48.736 188.633 49.4613 188.974 50.272C189.315 51.04 189.486 51.8293 189.486 52.64ZM179.822 56.16C180.163 56.16 180.505 56.16 180.846 56.16C181.187 56.1173 181.529 56.0747 181.87 56.032C181.785 55.776 181.657 55.52 181.486 55.264C181.315 55.008 181.123 54.7733 180.91 54.56C180.398 54.0053 179.779 53.6427 179.054 53.472C178.841 54.4107 178.734 55.2853 178.734 56.096L179.822 56.16ZM214.27 79.456C213.032 80.736 211.56 81.824 209.854 82.72C208.19 83.616 206.312 84.064 204.222 84.064C201.96 84.064 200.083 83.5093 198.59 82.4C197.139 81.3333 195.987 79.968 195.133 78.304C194.28 76.64 193.704 74.8267 193.405 72.864C193.064 70.8587 192.893 68.9387 192.893 67.104V53.664H191.101V45.664L197.438 36.064C197.736 36.064 198.206 36.0427 198.846 36C199.528 35.9573 200.232 35.8933 200.958 35.808C201.726 35.68 202.43 35.552 203.07 35.424C203.71 35.2533 204.158 35.04 204.414 34.784L205.246 34.08H209.278V41.12H217.47V49.12L212.926 53.664H209.278V59.744C209.278 60.9813 209.299 62.2187 209.342 63.456C209.384 64.6507 209.534 65.8667 209.79 67.104C210.088 68.4267 210.43 69.2587 210.814 69.6C211.198 69.8987 211.56 70.048 211.902 70.048C212.499 70.048 213.118 69.92 213.758 69.664L217.854 65.632L223.87 67.872L222.014 70.88C221.587 71.5627 221.096 72.2453 220.542 72.928C220.03 73.6107 219.454 74.272 218.814 74.912L214.27 79.456ZM206.398 44V36.96H206.334C205.694 37.5573 204.968 38.048 204.158 38.432C203.39 38.7733 202.43 38.944 201.278 38.944C200.467 38.944 199.656 38.8587 198.846 38.688V38.88C199.144 39.0933 199.379 39.4133 199.549 39.84C199.763 40.224 199.912 40.6293 199.998 41.056C200.126 41.4827 200.211 41.888 200.254 42.272C200.296 42.656 200.318 42.976 200.318 43.232V44H198.526V46.24H200.318V62.56C200.318 64.6507 200.488 66.5707 200.83 68.32C201.171 70.0267 201.683 71.4987 202.366 72.736C203.048 73.9733 203.923 74.9333 204.99 75.616C206.056 76.2987 207.315 76.64 208.766 76.64C210.856 76.64 212.84 75.9787 214.718 74.656C216.595 73.3333 218.216 71.5627 219.582 69.344L219.07 69.152C218.771 69.664 218.344 70.1547 217.79 70.624C217.278 71.0507 216.702 71.456 216.062 71.84C215.422 72.1813 214.739 72.4587 214.014 72.672C213.288 72.8427 212.584 72.928 211.902 72.928C210.92 72.928 210.088 72.6933 209.406 72.224C208.723 71.7547 208.147 71.008 207.678 69.984C207.251 68.9173 206.931 67.552 206.718 65.888C206.504 64.1813 206.398 62.1333 206.398 59.744V46.24H214.59V44H206.398Z" fill="#454444"/>
</mask>
<g mask="url(#mask0_571_5706)">
<circle cx="38.5" cy="22.5" r="14.5" fill="white"/>
<circle cx="56.5" cy="27.5" r="14.5" fill="white"/>
<circle cx="104.5" cy="70.5" r="14.5" fill="white"/>
<circle cx="123.5" cy="71.5" r="14.5" fill="white"/>
<circle cx="133.5" cy="55.5" r="14.5" fill="white"/>
<circle cx="47.5" cy="45.5" r="14.5" fill="white"/>
<circle cx="53.5" cy="76.5" r="14.5" fill="white"/>
<circle cx="77.5" cy="62.5" r="14.5" fill="white"/>
<circle cx="87.5" cy="51.5" r="14.5" fill="white"/>
<circle cx="87.5" cy="66.5" r="14.5" fill="white"/>
<circle cx="109.5" cy="59.5" r="14.5" fill="white"/>
<circle cx="129.5" cy="45.5" r="14.5" fill="white"/>
<circle cx="138.5" cy="37.5" r="14.5" fill="white"/>
<circle cx="130.5" cy="66.5" r="14.5" fill="white"/>
<circle cx="122.5" cy="70.5" r="14.5" fill="white"/>
<circle cx="81.5" cy="74.5" r="14.5" fill="white"/>
<circle cx="136.5" cy="71.5" r="14.5" fill="white"/>
<circle cx="152.5" cy="51.5" r="14.5" fill="white"/>
<circle cx="179.5" cy="51.5" r="14.5" fill="white"/>
<circle cx="208.5" cy="65.5" r="14.5" fill="white"/>
<circle cx="208.5" cy="50.5" r="14.5" fill="white"/>
<circle cx="208.5" cy="50.5" r="14.5" fill="white"/>
<circle cx="174.5" cy="56.5" r="14.5" fill="white"/>
<circle cx="186.5" cy="56.5" r="14.5" fill="white"/>
<circle cx="202.5" cy="73.5" r="14.5" fill="white"/>
<circle cx="200.5" cy="42.5" r="14.5" fill="white"/>
<circle cx="176.5" cy="71.5" r="14.5" fill="white"/>
<circle cx="152.5" cy="74.5" r="14.5" fill="white"/>
<circle cx="138.5" cy="15.5" r="14.5" fill="white"/>
<circle cx="33.5" cy="76.5" r="14.5" fill="white"/>
<circle cx="39" cy="56" r="26" fill="white"/>
</g>
</svg>
